<svg width="130" height="30" viewBox="0 0 130 30" fill="none" xmlns="http://www.w3.org/2000/svg">
<path d="M7.53365 16.7645C7.47485 16.836 7.41789 16.8932 7.3626 16.9357C7.30675 16.978 7.22705 16.9993 7.12294 16.9993C7.01846 16.9993 6.90918 16.9588 6.79508 16.8773C6.68098 16.7957 6.5373 16.7075 6.3644 16.6128C6.1915 16.5189 5.98291 16.4309 5.73808 16.3488C5.49343 16.2676 5.19164 16.2269 4.83326 16.2269C4.36338 16.2269 3.94934 16.3116 3.5906 16.481C3.23167 16.6511 2.93321 16.8922 2.69521 17.2055C2.45704 17.5178 2.27618 17.8997 2.1521 18.35C2.02821 18.8004 1.96607 19.3056 1.96607 19.8665C1.96607 20.4471 2.03135 20.964 2.16209 21.4176C2.29209 21.8712 2.4783 22.2527 2.71981 22.5624C2.96094 22.8724 3.25441 23.1074 3.60021 23.2672C3.94583 23.4271 4.33046 23.507 4.75486 23.507C5.16575 23.507 5.50471 23.4565 5.77247 23.355C6.0395 23.2546 6.2614 23.1451 6.43726 23.0277C6.61312 22.9099 6.75995 22.8008 6.87737 22.6995C6.99479 22.5987 7.11536 22.5482 7.23963 22.5482C7.39644 22.5482 7.51683 22.6066 7.60189 22.7241L8.14981 23.4288C7.9218 23.7099 7.6655 23.9482 7.38202 24.1431C7.0978 24.3393 6.79638 24.4989 6.47702 24.6228C6.15711 24.7471 5.82259 24.8384 5.47364 24.8969C5.12451 24.9557 4.77094 24.9851 4.41275 24.9851C3.7929 24.9851 3.21428 24.871 2.6758 24.6422C2.13749 24.4141 1.67149 24.0814 1.2765 23.6444C0.88207 23.2078 0.570479 22.6706 0.342103 22.0351C0.114096 21.3987 0 20.6759 0 19.8674C0 19.1307 0.102631 18.4491 0.308077 17.8228C0.513339 17.1964 0.816793 16.6568 1.21789 16.2034C1.61898 15.7505 2.11327 15.3953 2.70039 15.137C3.2877 14.8792 3.95951 14.7505 4.71584 14.7505C5.42649 14.7505 6.05263 14.8646 6.59444 15.093C7.1357 15.3215 7.61816 15.644 8.04237 16.0616L7.53365 16.7645Z" fill="#00AEEF"/>
<path d="M11.6919 10.4048V24.8461H9.77441V10.4048H11.6919Z" fill="#00AEEF"/>
<path d="M18.452 14.7491C19.1824 14.7491 19.843 14.8684 20.4332 15.1062C21.0237 15.3444 21.5257 15.6872 21.94 16.1338C22.354 16.5808 22.6722 17.1185 22.8936 17.7484C23.1153 18.378 23.2266 19.0835 23.2266 19.8666C23.2266 20.6494 23.1155 21.3576 22.8936 21.9897C22.6722 22.6229 22.354 23.1602 21.94 23.6041C21.5257 24.0479 21.0231 24.3885 20.4332 24.6261C19.8431 24.8645 19.1822 24.9837 18.452 24.9837C17.7147 24.9837 17.0507 24.8645 16.4606 24.6261C15.8705 24.3885 15.3664 24.0479 14.9492 23.6041C14.5315 23.1602 14.2101 22.6227 13.9854 21.9897C13.7604 21.3569 13.6479 20.649 13.6479 19.8666C13.6479 19.0835 13.7604 18.378 13.9854 17.7484C14.2101 17.1185 14.5319 16.5808 14.9492 16.1338C15.3664 15.6872 15.8701 15.3444 16.4606 15.1062C17.0512 14.8679 17.7149 14.7491 18.452 14.7491ZM18.452 23.4962C19.3914 23.4962 20.0926 23.1798 20.5553 22.5471C21.0183 21.9146 21.2502 21.0244 21.2502 19.8759C21.2502 18.7281 21.0183 17.8358 20.5553 17.1997C20.0926 16.564 19.3914 16.2457 18.452 16.2457C17.4997 16.2457 16.7903 16.5641 16.3243 17.1997C15.8576 17.8356 15.6244 18.7281 15.6244 19.8759C15.6244 21.0244 15.8576 21.9146 16.3243 22.5471C16.7905 23.1798 17.4997 23.4962 18.452 23.4962Z" fill="#00AEEF"/>
<path d="M33.4217 14.9058V24.8465H32.2766C32.0154 24.8465 31.846 24.7197 31.7681 24.465L31.6311 23.4672C31.416 23.6954 31.1904 23.9042 30.9556 24.0935C30.7205 24.2831 30.4698 24.4445 30.2026 24.5778C29.935 24.7123 29.651 24.8158 29.3514 24.8905C29.0511 24.966 28.7284 25.0032 28.3824 25.0032C27.8347 25.0032 27.3535 24.9118 26.9393 24.7291C26.5249 24.5471 26.1782 24.291 25.8971 23.9617C25.6171 23.632 25.405 23.2361 25.2615 22.773C25.1176 22.3096 25.0459 21.7983 25.0459 21.2361V14.9058H26.9635V21.2361C26.9635 21.9473 27.1268 22.5003 27.4532 22.8951C27.779 23.2899 28.2783 23.4863 28.9499 23.4863C29.4392 23.4863 29.8958 23.371 30.3202 23.1392C30.7437 22.908 31.1418 22.5898 31.5137 22.185V14.9054H33.4215V14.9058H33.4217Z" fill="#00AEEF"/>
<path d="M44.223 10.4045V24.8458H43.0682C42.801 24.8458 42.6346 24.719 42.5695 24.4643L42.4034 23.3199C41.9796 23.8219 41.4986 24.2247 40.9599 24.5283C40.4222 24.8314 39.8007 24.983 39.0963 24.983C38.5288 24.983 38.0153 24.8717 37.5548 24.65C37.0953 24.429 36.7023 24.1039 36.3765 23.6758C36.0499 23.2492 35.799 22.7191 35.6228 22.0866C35.4464 21.4535 35.3589 20.7267 35.3589 19.9048C35.3589 19.1675 35.4567 18.4829 35.652 17.8499C35.8478 17.2168 36.1317 16.6692 36.5034 16.2062C36.8752 15.7431 37.3253 15.3792 37.8536 15.1155C38.382 14.8514 38.9789 14.7192 39.644 14.7192C40.2441 14.7192 40.7545 14.8169 41.1752 15.0125C41.5959 15.208 41.9722 15.4857 42.3052 15.8443V10.4043H44.223V10.4045ZM42.3054 17.312C41.9927 16.9011 41.6551 16.6141 41.2928 16.4512C40.9305 16.2883 40.5248 16.2067 40.0751 16.2067C39.2006 16.2067 38.524 16.5213 38.0449 17.1507C37.5654 17.7804 37.3261 18.6985 37.3261 19.9049C37.3261 20.5377 37.3793 21.0773 37.4875 21.5245C37.5949 21.9716 37.7516 22.3372 37.9572 22.6203C38.1628 22.9045 38.4154 23.1129 38.7157 23.2466C39.0153 23.3811 39.3548 23.4478 39.7332 23.4478C40.2874 23.4478 40.7667 23.3236 41.1717 23.0754C41.5761 22.8276 41.9541 22.4783 42.3062 22.0291V17.3122H42.3054V17.312Z" fill="#00AEEF"/>
<path d="M59.0336 29.7417H59.0327C59.0109 29.7464 59.0168 29.7464 59.0336 29.7417Z" fill="white"/>
<path d="M58.0318 18.2009C57.1575 18.1991 56.0276 18.2475 55.9176 18.2475C56.5937 16.9906 57.3348 15.7287 57.9911 14.6111C58.6474 13.4932 59.0771 12.7314 59.2796 12.3262C59.4823 11.9205 59.584 11.5623 59.584 11.2518C59.584 10.8779 59.4531 10.5199 59.1905 10.1776C57.8539 10.8857 56.5951 11.6634 55.4137 12.5104C54.2319 13.3575 53.1087 14.2525 52.0424 15.1956C50.9765 16.1381 49.7912 17.246 48.4868 18.5184C48.3353 18.5264 48.1025 18.5323 47.7883 18.5366C47.4741 18.5404 47.2199 18.5427 47.0248 18.5427C46.8301 18.5427 46.6174 18.5427 46.3866 18.5427C46.4105 18.3278 46.544 18.1667 46.7868 18.0591C47.0289 17.952 47.4405 17.8583 48.0213 17.7791C47.0348 17.7869 46.3665 17.8466 46.0171 17.9576C45.6669 18.0693 45.2928 18.328 44.8952 18.733C44.1628 19.4654 43.7972 20.0022 43.7972 20.344C43.7972 20.5589 43.8765 20.694 44.0359 20.7499C44.1948 20.8055 44.5049 20.8394 44.9666 20.8514C45.4284 20.8627 45.8023 20.8886 46.0883 20.9291L43.821 23.3515C43.6616 23.2727 43.5381 23.2322 43.451 23.2322C43.1328 23.2322 42.7234 23.4547 42.2217 23.9004C41.7205 24.346 41.2712 24.859 40.8738 25.4396C40.476 26.0201 40.2769 26.4499 40.2769 26.7283C40.2769 26.9826 40.4161 27.1098 40.6944 27.1098C40.9413 27.1098 41.212 27.0044 41.506 26.7938C41.8002 26.5828 42.0811 26.3459 42.3474 26.0841C42.6141 25.8211 43.1882 25.2606 44.0714 24.4009C44.2227 24.2504 44.4156 24.0607 44.6502 23.834C44.8849 23.6074 45.1654 23.3334 45.4922 23.0113C45.8174 22.6895 46.1638 22.3387 46.5297 21.9609C46.8952 21.5835 47.206 21.2553 47.4605 20.9768C48.6698 21.0082 49.6166 21.0245 50.3012 21.0245C50.7461 21.0245 51.4464 21.0082 52.4006 20.9768C51.7722 22.1538 51.3809 22.8979 51.2254 23.208C51.0703 23.5176 50.9247 23.8419 50.7901 24.1803C50.655 24.5187 50.5871 24.7791 50.5871 24.9624C50.5871 25.4076 50.7141 25.752 50.9688 25.9946C51.2234 26.237 51.4823 26.358 51.7443 26.358C51.967 26.358 52.1879 26.3117 52.4065 26.2207C52.6251 26.1294 52.8681 25.99 53.1344 25.8032C53.401 25.6164 53.7152 25.3818 54.0775 25.0992C54.4392 24.8172 54.9466 24.4289 55.5988 23.9355L55.6942 23.3027C54.4771 24.0034 53.7851 24.3534 53.6179 24.3534C53.2756 24.3534 53.1051 24.1898 53.1051 23.8637C53.1051 23.6409 53.5698 22.6546 54.5011 20.9043C54.5011 20.9043 54.7829 20.9194 56.0041 20.8296C56.0041 20.8296 56.6991 20.334 57.4029 19.3216C57.6497 18.9684 58.0318 18.2009 58.0318 18.2009ZM53.9367 18.4214L50.1455 18.4927C50.7737 17.8485 51.3785 17.0374 51.959 16.5082C52.54 15.9791 53.2041 15.4062 53.9519 14.7897C54.6995 14.1732 55.3719 13.6462 55.9681 13.2088C56.5652 12.7715 57.1493 12.3734 57.723 12.0155C57.4282 12.5085 57.1603 12.9499 56.9175 13.3399C56.6747 13.7299 56.3838 14.205 56.0463 14.766C55.7083 15.3267 55.3983 15.8458 55.115 16.3233C54.8332 16.8005 54.3902 17.6495 53.9367 18.4214Z" fill="#F26924"/>
<path d="M59.0336 29.9116H59.0327C59.0109 29.9167 59.0168 29.9167 59.0336 29.9116Z" fill="#F26924"/>
<path d="M69.271 23.9163C69.203 23.7534 69.0996 23.6761 68.9617 23.684C68.823 23.6924 67.9132 23.6826 65.4018 24.5852C63.8706 25.1353 62.8412 25.6091 61.951 26.2873C62.3665 25.1359 62.5645 24.8333 63.3421 23.4651C64.646 21.1691 68.0977 16.8906 68.0977 16.8906C68.0977 16.8906 64.6016 17.6501 62.7284 17.9164C60.5674 18.223 59.4814 18.2799 58.559 18.2982C58.559 18.2982 58.3282 18.895 57.9439 19.4464C57.3045 20.3662 56.748 20.879 56.748 20.879C58.1841 20.763 60.776 20.5289 62.9482 20.0574C63.1489 20.0141 63.3318 19.9721 63.5012 19.9309C62.6102 20.7862 61.7085 21.8502 60.9206 23.1594C57.7917 28.3588 58.9471 30 58.9471 30H58.9484C59.0024 29.9993 63.255 27.6816 65.0654 26.9889C67.3423 26.1178 67.8044 26.1374 67.8799 26.1056C67.9298 26.2757 67.8806 26.4405 67.7305 26.5989C67.5803 26.7574 67.2981 26.9594 66.8833 27.2042C67.6284 26.8843 68.1166 26.6263 68.3461 26.4305C68.5763 26.2346 68.7775 25.9205 68.9506 25.4861C69.2738 24.6993 69.3796 24.1756 69.271 23.9163Z" fill="#F26924"/>
<path d="M72.3079 24.3744L72.5265 23.8705L72.714 23.3608C72.8216 23.0159 72.9244 22.6712 72.9941 22.3203L73.0485 22.0667L73.0877 21.7951C73.1119 21.6152 73.1452 21.4321 73.1622 21.254C73.1814 20.9027 73.2184 20.5606 73.2051 20.207C73.2079 20.0319 73.2042 19.8571 73.1837 19.6842C73.1637 19.5111 73.1637 19.3371 73.1284 19.1674L73.038 18.6594L72.9076 18.1633C72.8074 17.8374 72.6966 17.5164 72.5531 17.2094C72.4122 16.9023 72.2526 16.604 72.0669 16.3215C71.9815 16.1765 71.8798 16.0406 71.7792 15.9052C71.683 15.7665 71.5747 15.6363 71.4641 15.5082C71.3583 15.3769 71.244 15.2519 71.1272 15.1291C71.0151 15.0026 70.8938 14.8835 70.7699 14.7672C70.6499 14.6477 70.5223 14.5349 70.3921 14.4247C70.2662 14.3112 70.1319 14.2049 69.9967 14.1008C69.7301 13.8888 69.4503 13.6893 69.1639 13.5011C68.878 13.3111 68.5804 13.1371 68.2805 12.9683C67.9761 12.8056 67.6723 12.6425 67.3583 12.4986C67.0465 12.3501 66.7285 12.2157 66.4076 12.0912C66.0938 11.9712 65.7484 11.8475 65.4638 11.7647L64.9211 11.6067L64.8343 11.027L64.7903 10.7326L64.7711 10.6046L64.8046 10.4195C64.8789 10.0075 64.9301 9.50031 64.9479 9.03505C64.9667 8.55999 64.9627 8.08529 64.9233 7.61837C64.8434 6.68471 64.6372 5.77823 64.267 4.979C63.8997 4.17608 63.3457 3.50852 62.656 2.99795C62.3068 2.74628 61.9165 2.54656 61.5111 2.36664L61.196 2.25032L61.1176 2.2211L61.0782 2.20631L61.0584 2.19891L61.0485 2.19503L61.0435 2.19318C61.0098 2.18338 61.0841 2.20501 61.0742 2.20187L60.8892 2.14935C60.6431 2.07908 60.3829 1.9992 60.1926 1.97257L59.8809 1.91136L59.5486 1.87401C59.3267 1.83832 59.1075 1.85293 58.8858 1.83684C58.4476 1.85422 58.0084 1.8925 57.5847 2.01066C57.1629 2.13012 56.7435 2.27806 56.348 2.4946C55.9526 2.70855 55.5719 2.9643 55.2126 3.25906C54.494 3.85025 53.8602 4.57995 53.307 5.37991C53.029 5.77897 52.7783 6.20059 52.5371 6.62886C52.301 7.05325 52.0752 7.51297 51.9017 7.93884L51.6299 8.60659L51.0813 8.25653C50.9548 8.1759 50.8085 8.08936 50.6683 8.008L50.2376 7.76742C49.9481 7.6106 49.6529 7.46322 49.3571 7.31769C48.7638 7.0294 48.1543 6.77421 47.5282 6.57967C46.9032 6.39235 46.2598 6.23202 45.6109 6.24441C45.4499 6.24682 45.287 6.25662 45.1285 6.28473C44.9676 6.30581 44.8101 6.34686 44.6571 6.40159C44.5029 6.45467 44.3564 6.52974 44.2165 6.61851C44.1508 6.66788 44.0785 6.71189 44.0142 6.76552L43.8281 6.93786L43.9775 6.72946C44.0312 6.66215 44.094 6.60279 44.1538 6.53936C44.2816 6.42231 44.4219 6.31431 44.5759 6.22795C44.7285 6.13993 44.8914 6.06467 45.0602 6.0103C45.2274 5.94725 45.4024 5.91377 45.5769 5.88271C46.2792 5.76565 46.9936 5.81595 47.6826 5.93356C48.3727 6.05487 49.0462 6.24164 49.7054 6.46447C50.0363 6.57394 50.3602 6.70061 50.6813 6.83505L51.1611 7.04308C51.3224 7.11613 51.4751 7.18695 51.644 7.27201L50.8233 7.58952C50.9836 7.04512 51.1678 6.56099 51.3812 6.06319C51.592 5.56982 51.84 5.09199 52.1094 4.62303C52.6468 3.68419 53.3212 2.80545 54.1385 2.03285C54.5535 1.65229 55.0112 1.30871 55.504 1.00858C55.9964 0.706975 56.5381 0.474161 57.098 0.299596C57.6602 0.122627 58.2475 0.0427412 58.8327 0.00298332C59.1238 0.00760633 59.4204 -0.0158778 59.7076 0.0222158L60.1414 0.0623426C60.2886 0.0832386 60.4388 0.112456 60.5871 0.1389C60.9051 0.189753 61.1368 0.258729 61.3859 0.323081L61.5722 0.372269L61.8127 0.452709L62.2225 0.595283C62.7621 0.817373 63.2884 1.08921 63.7764 1.43464C64.2603 1.78469 64.704 2.19632 65.0843 2.65936C65.4662 3.12166 65.7721 3.63852 66.0152 4.1709C66.5051 5.239 66.7348 6.3733 66.8006 7.48467C66.8341 8.04128 66.8309 8.59493 66.7904 9.14507C66.7453 9.70408 66.6811 10.2196 66.5506 10.814L66.5652 10.5009L66.5985 10.7968L65.9692 10.0595C66.3804 10.1947 66.7159 10.3337 67.0748 10.4931C67.4265 10.6509 67.7722 10.8179 68.1106 11C68.79 11.3578 69.4409 11.7711 70.0572 12.2371C70.3646 12.4705 70.6667 12.7127 70.9519 12.9764C71.0954 13.107 71.2374 13.239 71.3718 13.3803C71.5094 13.5171 71.6448 13.6573 71.7718 13.8058C71.9033 13.9495 72.0307 14.0974 72.149 14.2535C72.2726 14.4046 72.3918 14.5597 72.4985 14.7247C72.6106 14.8854 72.7197 15.0475 72.8164 15.2195C72.9172 15.3874 73.0178 15.5551 73.1014 15.7338C73.2826 16.0809 73.4337 16.445 73.5603 16.8148C73.6898 17.1845 73.7808 17.5654 73.857 17.9462L73.9341 18.5231L73.9635 19.1017C73.9775 19.2935 73.9552 19.4856 73.952 19.677C73.9503 19.8684 73.9306 20.0583 73.9039 20.2464C73.8697 20.6231 73.7854 21.0009 73.7011 21.3707C73.655 21.5517 73.5962 21.7221 73.5446 21.8985L73.4647 22.1607C73.4302 22.2641 73.3971 22.3399 73.3632 22.4309C73.2382 22.7826 73.0742 23.1182 72.9002 23.4453L72.6197 23.9232L72.3079 24.3744Z" fill="#2AACE3"/>
<path fill-rule="evenodd" clip-rule="evenodd" d="M90.1187 13.8944C90.749 14.1695 90.7948 14.3757 90.302 15.3154C89.798 16.278 89.6718 16.3352 89.053 16.0831C88.2738 15.7509 87.2767 15.4987 86.635 15.4987C85.5809 15.4987 84.8818 15.8768 84.8818 16.4498C84.8818 18.3407 90.921 17.3207 90.921 21.3544C90.921 23.3828 89.179 24.735 86.5664 24.735C85.1913 24.735 83.4951 24.2767 82.3262 23.6808C81.7419 23.3828 81.7076 23.2109 82.2116 22.2483C82.6473 21.4003 82.7846 21.3086 83.415 21.5722C84.4119 22.0077 85.6726 22.3399 86.5206 22.3399C87.4831 22.3399 88.1249 21.9503 88.1249 21.3773C88.1249 19.5438 81.9826 20.4148 81.9826 16.5072C81.9826 14.4329 83.7129 13.0463 86.3027 13.0463C87.5174 13.0463 89.053 13.413 90.1187 13.8944Z" fill="#373D40"/>
<path fill-rule="evenodd" clip-rule="evenodd" d="M94.9897 9.10419V24.1391C94.9897 24.3683 94.749 24.6089 94.4053 24.6089H92.8238C92.48 24.6089 92.2393 24.3683 92.2393 24.1391V9.10419C92.2393 8.35941 92.4457 8.29065 93.6146 8.29065C94.9438 8.29065 94.9897 8.38232 94.9897 9.10419Z" fill="#373D40"/>
<path fill-rule="evenodd" clip-rule="evenodd" d="M98.9428 21.3086C98.9428 22.0765 99.5961 22.592 100.582 22.592C101.773 22.592 102.85 22.0191 103.481 21.0451V20.0367C102.85 19.7959 102.083 19.6584 101.395 19.6584C99.9283 19.6584 98.9428 20.3575 98.9428 21.3086ZM106.231 17.5614V24.0359C106.231 24.3797 105.99 24.6204 105.647 24.6204H104.088C103.733 24.6204 103.481 24.3568 103.504 24.0016L103.527 23.3025C102.679 24.2422 101.464 24.735 100.249 24.735C97.8885 24.735 96.3071 23.3713 96.3071 21.3315C96.3071 19.1658 98.0948 17.7103 100.776 17.699C101.796 17.699 102.724 17.8823 103.481 18.1916V17.4468C103.481 16.2551 102.541 15.5446 100.948 15.5446C100.203 15.5446 99.2866 15.8425 98.5532 16.2664C97.9916 16.5873 97.8541 16.5644 97.2468 15.6592C96.6509 14.7538 96.6738 14.582 97.2468 14.2153C98.3469 13.5046 99.8366 13.0463 101.212 13.0463C104.294 13.0463 106.231 14.7195 106.231 17.5614Z" fill="#373D40"/>
<path fill-rule="evenodd" clip-rule="evenodd" d="M116.958 13.917C117.531 14.2492 117.554 14.4326 116.924 15.4067C116.328 16.3235 116.225 16.3807 115.594 16.0598C115.113 15.8077 114.345 15.5901 113.715 15.5901C111.733 15.5901 110.415 16.8964 110.415 18.8674C110.415 20.9186 111.733 22.2937 113.715 22.2937C114.403 22.2937 115.262 22.0302 115.824 21.7208C116.396 21.3885 116.523 21.4114 117.13 22.2937C117.68 23.1188 117.669 23.3137 117.176 23.6575C116.293 24.2648 114.895 24.7347 113.669 24.7347C110.002 24.7347 107.55 22.3854 107.55 18.8674C107.55 15.3722 110.002 13.0459 113.692 13.0459C114.815 13.0459 116.133 13.4241 116.958 13.917Z" fill="#373D40"/>
<path fill-rule="evenodd" clip-rule="evenodd" d="M128.922 23.1878C129.381 23.7723 129.197 23.9786 128.051 24.3911C126.882 24.815 126.722 24.7921 126.31 24.2536L123.032 19.8761L121.565 21.2971V24.139C121.565 24.3682 121.325 24.6087 120.981 24.6087H119.399C119.056 24.6087 118.815 24.3682 118.815 24.139V9.10406C118.815 8.35928 119.021 8.29053 120.19 8.29053C121.519 8.29053 121.565 8.3822 121.565 9.10406V17.653L126.057 13.3442C126.55 12.8743 126.825 12.9088 127.707 13.4931C128.682 14.1235 128.75 14.2953 128.28 14.7536L124.934 18.0081L128.922 23.1878Z" fill="#373D40"/>
<circle cx="77.0112" cy="7.5" r="7.5" fill="#08B290"/>
<path d="M72.534 6.16565V7.24725H74.0074V7.88379H72.534V9.44549H71.6816V5.5318H74.2896V6.16565H72.534Z" fill="white"/>
<path d="M78.7976 7.4873C78.7976 7.77321 78.7468 8.03844 78.6452 8.28298C78.5455 8.52753 78.4034 8.73882 78.219 8.91684C78.0365 9.09485 77.8163 9.23511 77.5585 9.3376C77.3007 9.4383 77.0147 9.48865 76.7005 9.48865C76.3862 9.48865 76.1002 9.4383 75.8424 9.3376C75.5846 9.23511 75.3635 9.09485 75.1791 8.91684C74.9947 8.73882 74.8517 8.52753 74.7501 8.28298C74.6504 8.03844 74.6005 7.77321 74.6005 7.4873C74.6005 7.20139 74.6504 6.93706 74.7501 6.69431C74.8517 6.44976 74.9947 6.23848 75.1791 6.06046C75.3635 5.88244 75.5846 5.74309 75.8424 5.64239C76.1002 5.53989 76.3862 5.48865 76.7005 5.48865C77.0147 5.48865 77.3007 5.53989 77.5585 5.64239C77.8163 5.74309 78.0365 5.88334 78.219 6.06316C78.4034 6.24118 78.5455 6.45246 78.6452 6.69701C78.7468 6.93976 78.7976 7.20319 78.7976 7.4873ZM77.9311 7.4873C77.9311 7.28231 77.9029 7.0989 77.8464 6.93706C77.79 6.77343 77.7081 6.63497 77.6009 6.52169C77.4955 6.40661 77.3666 6.3194 77.2142 6.26006C77.0636 6.19892 76.8924 6.16835 76.7005 6.16835C76.5085 6.16835 76.3364 6.19892 76.1839 6.26006C76.0315 6.3194 75.9017 6.40661 75.7944 6.52169C75.6891 6.63497 75.6082 6.77343 75.5517 6.93706C75.4953 7.0989 75.467 7.28231 75.467 7.4873C75.467 7.69409 75.4953 7.8793 75.5517 8.04293C75.6082 8.20476 75.6891 8.34232 75.7944 8.45561C75.9017 8.56889 76.0315 8.6561 76.1839 8.71724C76.3364 8.77658 76.5085 8.80625 76.7005 8.80625C76.8924 8.80625 77.0636 8.77658 77.2142 8.71724C77.3666 8.6561 77.4955 8.56889 77.6009 8.45561C77.7081 8.34232 77.79 8.20476 77.8464 8.04293C77.9029 7.8793 77.9311 7.69409 77.9311 7.4873Z" fill="white"/>
<path d="M80.6974 7.3848C80.8348 7.3848 80.9533 7.36862 81.0531 7.33625C81.1528 7.30209 81.2346 7.25624 81.2986 7.1987C81.3626 7.13936 81.4096 7.07013 81.4397 6.99101C81.4698 6.91189 81.4849 6.82558 81.4849 6.73207C81.4849 6.54686 81.42 6.40301 81.2901 6.30052C81.1622 6.19802 80.9665 6.14677 80.7031 6.14677H80.2627V7.3848H80.6974ZM82.6816 9.44549H81.9167C81.7737 9.44549 81.6702 9.39335 81.6063 9.28905L80.8273 8.08878C80.7953 8.04203 80.7595 8.00787 80.72 7.98629C80.6824 7.96471 80.6259 7.95392 80.5506 7.95392H80.2627V9.44549H79.416V5.5318H80.7031C80.9891 5.5318 81.2337 5.56057 81.4369 5.61812C81.6401 5.67386 81.8067 5.75208 81.9365 5.85277C82.0663 5.95347 82.1614 6.07395 82.2216 6.2142C82.2818 6.35266 82.3119 6.50551 82.3119 6.67273C82.3119 6.8022 82.2921 6.92538 82.2526 7.04226C82.215 7.15734 82.1595 7.26253 82.0861 7.35783C82.0127 7.45313 81.9224 7.53765 81.8151 7.61137C81.7079 7.6851 81.5856 7.74444 81.4482 7.78939C81.5028 7.81816 81.5536 7.85322 81.6006 7.89458C81.6477 7.93414 81.69 7.98179 81.7276 8.03754L82.6816 9.44549Z" fill="white"/>
</svg>
